<svg xmlns="http://www.w3.org/2000/svg" data-name="Layer 1" viewBox="0 0 168 168" id="development"><circle cx="2" cy="149.26" r="2" fill="#2d4856" class="color2d4356 svgShape"></circle><path fill="#2d4856" d="M11 147.26016H8a2 2 0 0 0 0 4h3a2 2 0 0 0 0-4zM160 147.26016h-3a2 2 0 0 0 0 4h3a2 2 0 0 0 0-4z" class="color2d4356 svgShape"></path><circle cx="166" cy="149.26" r="2" fill="#2d4856" class="color2d4356 svgShape"></circle><path fill="#66ccff" d="M118.15387 155.26016h-8.30774a2.00641 2.00641 0 0 0 0 4h8.30774a2.00641 2.00641 0 0 0 0-4zM58.15387 155.26016H49.84613a2.00641 2.00641 0 0 0 0 4h8.30774a2.00641 2.00641 0 0 0 0-4zM104 155.26016H64a2 2 0 0 0 0 4H79.94v2H72a2 2 0 0 0 0 4H97a2 2 0 0 0 0-4H88.06v-2H104a2 2 0 0 0 0-4z" class="color0bceb2 svgShape"></path><path fill="#2d4856" d="M55.88873 106.26016H76v4H72a2 2 0 0 0 0 4H96a2 2 0 0 0 0-4H92v-4h20.11035A1.87834 1.87834 0 0 0 114 104.39218v-34.265a1.87842 1.87842 0 0 0-1.88965-1.86707H55.88873A1.87818 1.87818 0 0 0 54 70.12723v34.265A1.87809 1.87809 0 0 0 55.88873 106.26016zm32.11127 4H80v-4h8zm-30-38h52v30H58zM20.98242 46.48184l11 6.5a1.99936 1.99936 0 0 0 2.03516 0l11-6.5A2.00057 2.00057 0 0 0 46 44.76016v-13a2.00057 2.00057 0 0 0-.98242-1.72168l-11-6.5a1.99936 1.99936 0 0 0-2.03516 0l-11 6.5A2.00057 2.00057 0 0 0 20 31.76016v13A2.00057 2.00057 0 0 0 20.98242 46.48184zM24 32.90128l9-5.31787 9 5.31787V43.619l-9 5.31787L24 43.619zM42.6709 52.76553a2.00035 2.00035 0 0 0-.166 2.82324l8 9a2.00015 2.00015 0 0 0 2.99023-2.65723l-8-9A2.0001 2.0001 0 0 0 42.6709 52.76553z" class="color2d4356 svgShape"></path><circle cx="33" cy="38.26" r="2" fill="#66ccff" class="color0bceb2 svgShape"></circle><path fill="#2d4856" d="M122.98242 46.48184l11 6.5a1.99936 1.99936 0 0 0 2.03516 0l11-6.5A2.00056 2.00056 0 0 0 148 44.76016v-13a2.00056 2.00056 0 0 0-.98242-1.72168l-11-6.5a1.99936 1.99936 0 0 0-2.03516 0l-11 6.5A2.00056 2.00056 0 0 0 122 31.76016v13A2.00056 2.00056 0 0 0 122.98242 46.48184zM126 32.90128l9-5.31787 9 5.31787V43.619l-9 5.31787L126 43.619zM115.999 65.26016a1.99544 1.99544 0 0 0 1.49609-.67139l8-9a2.00015 2.00015 0 0 0-2.99023-2.65723l-8 9a2 2 0 0 0 1.49414 3.32861z" class="color2d4356 svgShape"></path><circle cx="135" cy="38.26" r="2" fill="#66ccff" class="color0bceb2 svgShape"></circle><path fill="#2d4856" d="M50.50488,109.93155l-8,9a2.00015,2.00015,0,0,0,2.99023,2.65723l8-9a2.00015,2.00015,0,0,0-2.99023-2.65723Z" class="color2d4356 svgShape"></path><circle cx="33" cy="136.26" r="2" fill="#66ccff" class="color0bceb2 svgShape"></circle><path fill="#2d4856" d="M122.50488,121.58878a2.00015,2.00015,0,0,0,2.99023-2.65723l-8-9a2.00015,2.00015,0,0,0-2.99023,2.65723Z" class="color2d4356 svgShape"></path><circle cx="135" cy="136.26" r="2" fill="#66ccff" class="color0bceb2 svgShape"></circle><path fill="#66ccff" d="M70.89453 79.4711l-6-3a2.00023 2.00023 0 0 0-1.78906 3.57813l2.42285 1.21094L63.10547 82.4711a2.00023 2.00023 0 1 0 1.78906 3.57813l6-3a2.00042 2.00042 0 0 0 0-3.57812zM80 85.26016H74a2 2 0 0 0 0 4h6a2 2 0 0 0 0-4z" class="color0bceb2 svgShape"></path><path fill="#2d4856" d="M150.72131 147.26016H142.3158l4.70178-2.77832A2.00056 2.00056 0 0 0 148 142.76016v-13a2.00056 2.00056 0 0 0-.98242-1.72168l-11-6.5a1.99936 1.99936 0 0 0-2.03516 0l-11 6.5A2.00056 2.00056 0 0 0 122 129.76016v13a2.00056 2.00056 0 0 0 .98242 1.72168l4.70178 2.77832H40.3158l4.70178-2.77832A2.00056 2.00056 0 0 0 46 142.76016v-13a2.00056 2.00056 0 0 0-.98242-1.72168l-11-6.5a1.99936 1.99936 0 0 0-2.03516 0l-11 6.5A2.00056 2.00056 0 0 0 20 129.76016v13a2.00056 2.00056 0 0 0 .98242 1.72168l4.70178 2.77832H17.27869a2.017 2.017 0 1 0 0 4H150.72131a2.017 2.017 0 1 0 0-4zM126 130.90128l9-5.31787 9 5.31787V141.619l-9 5.31787-9-5.31787zm-102 0l9-5.31787 9 5.31787V141.619l-9 5.31787L24 141.619zM55.75923 20.80474a3 3 0 1 0-3-3A3.00344 3.00344 0 0 0 55.75923 20.80474zm0-4.5a1.5 1.5 0 1 1-1.5 1.5A1.50148 1.50148 0 0 1 55.75923 16.30474zM162 69.26016a2 2 0 1 0 2 2A2.00229 2.00229 0 0 0 162 69.26016zm0 3a1 1 0 1 1 1-1A1.001 1.001 0 0 1 162 72.26016zM15 2.73984a2 2 0 1 0 2 2A2.00229 2.00229 0 0 0 15 2.73984zm0 3a1 1 0 1 1 1-1A1.001 1.001 0 0 1 15 5.73984zM161 6.26016a2 2 0 1 0 2 2A2.00229 2.00229 0 0 0 161 6.26016zm0 3a1 1 0 1 1 1-1A1.001 1.001 0 0 1 161 9.26016zM84 34.0834a2 2 0 1 0-2 2A2.00229 2.00229 0 0 0 84 34.0834zm-3 0a1 1 0 1 1 1 1A1.001 1.001 0 0 1 81 34.0834z" class="color2d4356 svgShape"></path><polygon fill="#66ccff" points="8.111 34.571 9.597 32.615 8.658 32.083 7.704 34.273 7.672 34.273 6.703 32.099 5.747 32.646 7.219 34.556 7.219 34.587 4.918 34.289 4.918 35.353 7.234 35.056 7.234 35.087 5.747 36.996 6.639 37.56 7.657 35.353 7.688 35.353 8.627 37.544 9.613 36.981 8.111 35.103 8.111 35.071 10.473 35.353 10.473 34.289 8.111 34.602 8.111 34.571" class="color0bceb2 svgShape"></polygon><polygon fill="#66ccff" points="89.334 4.893 88.478 5.992 88.991 6.317 89.577 5.046 89.595 5.046 90.136 6.307 90.704 5.983 89.839 4.902 89.839 4.884 91.199 5.046 91.199 4.433 89.839 4.613 89.839 4.596 90.695 3.469 90.154 3.163 89.604 4.424 89.586 4.424 89.028 3.172 88.478 3.487 89.325 4.587 89.325 4.605 88 4.433 88 5.046 89.334 4.875 89.334 4.893" class="color0bceb2 svgShape"></polygon><polygon fill="#66ccff" points="155.724 28.105 155.724 27.061 153.407 27.368 153.407 27.338 154.866 25.419 153.945 24.898 153.009 27.046 152.977 27.046 152.027 24.913 151.089 25.45 152.533 27.323 152.533 27.353 150.276 27.061 150.276 28.105 152.548 27.814 152.548 27.844 151.089 29.716 151.964 30.269 152.963 28.105 152.992 28.105 153.913 30.254 154.881 29.701 153.407 27.859 153.407 27.829 155.724 28.105" class="color0bceb2 svgShape"></polygon><polygon fill="#66ccff" points="116.748 18.846 118.006 17.191 117.211 16.741 116.404 18.594 116.377 18.594 115.557 16.754 114.748 17.218 115.993 18.833 115.993 18.859 114.047 18.608 114.047 19.508 116.006 19.257 116.006 19.283 114.748 20.898 115.503 21.375 116.364 19.508 116.39 19.508 117.185 21.361 118.019 20.885 116.748 19.296 116.748 19.27 118.746 19.508 118.746 18.608 116.748 18.872 116.748 18.846" class="color0bceb2 svgShape"></polygon><circle cx="2" cy="149.26" r="2" fill="#2d4856" class="color2d4356 svgShape"></circle><path fill="#2d4856" d="M11 147.26016H8a2 2 0 0 0 0 4h3a2 2 0 0 0 0-4zM160 147.26016h-3a2 2 0 0 0 0 4h3a2 2 0 0 0 0-4z" class="color2d4356 svgShape"></path><circle cx="166" cy="149.26" r="2" fill="#2d4856" class="color2d4356 svgShape"></circle><path fill="#66ccff" d="M118.15387 155.26016h-8.30774a2.00641 2.00641 0 0 0 0 4h8.30774a2.00641 2.00641 0 0 0 0-4zM58.15387 155.26016H49.84613a2.00641 2.00641 0 0 0 0 4h8.30774a2.00641 2.00641 0 0 0 0-4zM104 155.26016H64a2 2 0 0 0 0 4H79.94v2H72a2 2 0 0 0 0 4H97a2 2 0 0 0 0-4H88.06v-2H104a2 2 0 0 0 0-4z" class="color0bceb2 svgShape"></path><path fill="#2d4856" d="M55.88873 106.26016H76v4H72a2 2 0 0 0 0 4H96a2 2 0 0 0 0-4H92v-4h20.11035A1.87834 1.87834 0 0 0 114 104.39218v-34.265a1.87842 1.87842 0 0 0-1.88965-1.86707H55.88873A1.87818 1.87818 0 0 0 54 70.12723v34.265A1.87809 1.87809 0 0 0 55.88873 106.26016zm32.11127 4H80v-4h8zm-30-38h52v30H58zM20.98242 46.48184l11 6.5a1.99936 1.99936 0 0 0 2.03516 0l11-6.5A2.00057 2.00057 0 0 0 46 44.76016v-13a2.00057 2.00057 0 0 0-.98242-1.72168l-11-6.5a1.99936 1.99936 0 0 0-2.03516 0l-11 6.5A2.00057 2.00057 0 0 0 20 31.76016v13A2.00057 2.00057 0 0 0 20.98242 46.48184zM24 32.90128l9-5.31787 9 5.31787V43.619l-9 5.31787L24 43.619zM42.6709 52.76553a2.00035 2.00035 0 0 0-.166 2.82324l8 9a2.00015 2.00015 0 0 0 2.99023-2.65723l-8-9A2.0001 2.0001 0 0 0 42.6709 52.76553z" class="color2d4356 svgShape"></path><circle cx="33" cy="38.26" r="2" fill="#66ccff" class="color0bceb2 svgShape"></circle><path fill="#2d4856" d="M122.98242 46.48184l11 6.5a1.99936 1.99936 0 0 0 2.03516 0l11-6.5A2.00056 2.00056 0 0 0 148 44.76016v-13a2.00056 2.00056 0 0 0-.98242-1.72168l-11-6.5a1.99936 1.99936 0 0 0-2.03516 0l-11 6.5A2.00056 2.00056 0 0 0 122 31.76016v13A2.00056 2.00056 0 0 0 122.98242 46.48184zM126 32.90128l9-5.31787 9 5.31787V43.619l-9 5.31787L126 43.619zM115.999 65.26016a1.99544 1.99544 0 0 0 1.49609-.67139l8-9a2.00015 2.00015 0 0 0-2.99023-2.65723l-8 9a2 2 0 0 0 1.49414 3.32861z" class="color2d4356 svgShape"></path><circle cx="135" cy="38.26" r="2" fill="#66ccff" class="color0bceb2 svgShape"></circle><path fill="#2d4856" d="M50.50488,109.93155l-8,9a2.00015,2.00015,0,0,0,2.99023,2.65723l8-9a2.00015,2.00015,0,0,0-2.99023-2.65723Z" class="color2d4356 svgShape"></path><circle cx="33" cy="136.26" r="2" fill="#66ccff" class="color0bceb2 svgShape"></circle><path fill="#2d4856" d="M122.50488,121.58878a2.00015,2.00015,0,0,0,2.99023-2.65723l-8-9a2.00015,2.00015,0,0,0-2.99023,2.65723Z" class="color2d4356 svgShape"></path><circle cx="135" cy="136.26" r="2" fill="#66ccff" class="color0bceb2 svgShape"></circle><path fill="#66ccff" d="M70.89453 79.4711l-6-3a2.00023 2.00023 0 0 0-1.78906 3.57813l2.42285 1.21094L63.10547 82.4711a2.00023 2.00023 0 1 0 1.78906 3.57813l6-3a2.00042 2.00042 0 0 0 0-3.57812zM80 85.26016H74a2 2 0 0 0 0 4h6a2 2 0 0 0 0-4z" class="color0bceb2 svgShape"></path><path fill="#2d4856" d="M150.72131 147.26016H142.3158l4.70178-2.77832A2.00056 2.00056 0 0 0 148 142.76016v-13a2.00056 2.00056 0 0 0-.98242-1.72168l-11-6.5a1.99936 1.99936 0 0 0-2.03516 0l-11 6.5A2.00056 2.00056 0 0 0 122 129.76016v13a2.00056 2.00056 0 0 0 .98242 1.72168l4.70178 2.77832H40.3158l4.70178-2.77832A2.00056 2.00056 0 0 0 46 142.76016v-13a2.00056 2.00056 0 0 0-.98242-1.72168l-11-6.5a1.99936 1.99936 0 0 0-2.03516 0l-11 6.5A2.00056 2.00056 0 0 0 20 129.76016v13a2.00056 2.00056 0 0 0 .98242 1.72168l4.70178 2.77832H17.27869a2.017 2.017 0 1 0 0 4H150.72131a2.017 2.017 0 1 0 0-4zM126 130.90128l9-5.31787 9 5.31787V141.619l-9 5.31787-9-5.31787zm-102 0l9-5.31787 9 5.31787V141.619l-9 5.31787L24 141.619zM55.75923 20.80474a3 3 0 1 0-3-3A3.00344 3.00344 0 0 0 55.75923 20.80474zm0-4.5a1.5 1.5 0 1 1-1.5 1.5A1.50148 1.50148 0 0 1 55.75923 16.30474zM162 69.26016a2 2 0 1 0 2 2A2.00229 2.00229 0 0 0 162 69.26016zm0 3a1 1 0 1 1 1-1A1.001 1.001 0 0 1 162 72.26016zM15 2.73984a2 2 0 1 0 2 2A2.00229 2.00229 0 0 0 15 2.73984zm0 3a1 1 0 1 1 1-1A1.001 1.001 0 0 1 15 5.73984zM161 6.26016a2 2 0 1 0 2 2A2.00229 2.00229 0 0 0 161 6.26016zm0 3a1 1 0 1 1 1-1A1.001 1.001 0 0 1 161 9.26016zM84 34.0834a2 2 0 1 0-2 2A2.00229 2.00229 0 0 0 84 34.0834zm-3 0a1 1 0 1 1 1 1A1.001 1.001 0 0 1 81 34.0834z" class="color2d4356 svgShape"></path><polygon fill="#66ccff" points="8.111 34.571 9.597 32.615 8.658 32.083 7.704 34.273 7.672 34.273 6.703 32.099 5.747 32.646 7.219 34.556 7.219 34.587 4.918 34.289 4.918 35.353 7.234 35.056 7.234 35.087 5.747 36.996 6.639 37.56 7.657 35.353 7.688 35.353 8.627 37.544 9.613 36.981 8.111 35.103 8.111 35.071 10.473 35.353 10.473 34.289 8.111 34.602 8.111 34.571" class="color0bceb2 svgShape"></polygon><polygon fill="#66ccff" points="89.334 4.893 88.478 5.992 88.991 6.317 89.577 5.046 89.595 5.046 90.136 6.307 90.704 5.983 89.839 4.902 89.839 4.884 91.199 5.046 91.199 4.433 89.839 4.613 89.839 4.596 90.695 3.469 90.154 3.163 89.604 4.424 89.586 4.424 89.028 3.172 88.478 3.487 89.325 4.587 89.325 4.605 88 4.433 88 5.046 89.334 4.875 89.334 4.893" class="color0bceb2 svgShape"></polygon><polygon fill="#66ccff" points="155.724 28.105 155.724 27.061 153.407 27.368 153.407 27.338 154.866 25.419 153.945 24.898 153.009 27.046 152.977 27.046 152.027 24.913 151.089 25.45 152.533 27.323 152.533 27.353 150.276 27.061 150.276 28.105 152.548 27.814 152.548 27.844 151.089 29.716 151.964 30.269 152.963 28.105 152.992 28.105 153.913 30.254 154.881 29.701 153.407 27.859 153.407 27.829 155.724 28.105" class="color0bceb2 svgShape"></polygon><polygon fill="#66ccff" points="116.748 18.846 118.006 17.191 117.211 16.741 116.404 18.594 116.377 18.594 115.557 16.754 114.748 17.218 115.993 18.833 115.993 18.859 114.047 18.608 114.047 19.508 116.006 19.257 116.006 19.283 114.748 20.898 115.503 21.375 116.364 19.508 116.39 19.508 117.185 21.361 118.019 20.885 116.748 19.296 116.748 19.27 118.746 19.508 118.746 18.608 116.748 18.872 116.748 18.846" class="color0bceb2 svgShape"></polygon></svg>