<svg id="SvgjsSvg1001" width="550" height="550" xmlns="http://www.w3.org/2000/svg" version="1.1" xmlns:xlink="http://www.w3.org/1999/xlink" xmlns:svgjs="http://svgjs.com/svgjs"><defs id="SvgjsDefs1002"></defs><g id="SvgjsG1008"><svg xmlns="http://www.w3.org/2000/svg" enable-background="new 0 0 3000 3000" viewBox="0 0 3000 3000" width="550" height="550"><path fill="#ffffff" fill-rule="evenodd" d="m41090 34060.4-12.2-1076.3s-61 44.9-99.9 73.7c-20.4 15.1-34 37.7-37.5 62.9-8 55.5-21.9 157.7-26.5 226.3-11 162.4 23.7 616.9 30.9 708.1.2 1.9.5 3.7 1.2 5.4h144z" clip-rule="evenodd" transform="translate(-42498 -34560.5) scale(1.08476)" class="colorfff svgShape"></path><path fill="#000045" d="M41090 34063.1h-144c-1.1 0-2.1-.7-2.5-1.7-.8-2.1-1.2-4.3-1.4-6-7.1-90-42-546.4-30.9-708.7 4.6-68.9 18.6-171.5 26.5-226.5 3.6-25.6 17.6-49.2 38.6-64.7 38.9-28.8 99.9-73.7 99.9-73.7.8-.6 1.9-.7 2.8-.2.9.5 1.5 1.4 1.5 2.4l12.2 1076.3c0 .7-.3 1.4-.8 1.9-.5.6-1.2.9-1.9.9zm-142-5.4h139.2l-12.2-1068.3c-14.5 10.7-62.9 46.3-95.6 70.5-19.8 14.6-33.1 36.8-36.4 61-7.9 55-21.8 157.4-26.4 226.1-11 161.8 23.8 618 30.9 707.8.1.9.3 1.9.5 2.9z" transform="translate(-42498 -34560.5) scale(1.08476)" class="color000045 svgShape"></path><path fill="#3d61ff" fill-rule="evenodd" d="M41006.3 34057.3h569.6c-38.6-247.2-169-1004.7-327.7-1079.3l-91.7 25.4s-82.1 19.1-116.5 78.7c-30.7 53.1-62.3 126.3-64.9 241.9-2.3 94.5 22.1 563.4 31.2 733.3z" clip-rule="evenodd" transform="translate(-42682.7 -34708.7) scale(1.08921)" class="color3d61ff svgShape"></path><path fill="#ffffff" fill-rule="evenodd" d="M40658.1 33135.8c0-25.6-20.8-46.2-46.4-46.2H39600c-25.5 0-46.2 20.7-46.2 46.2v614.4c0 25.6 20.8 46.4 46.2 46.4h1011.7c25.6 0 46.4-20.8 46.4-46.4v-614.4z" clip-rule="evenodd" transform="translate(-39006.2 -31831.2)" class="colorfff svgShape"></path><path fill="#000045" d="M40611.8 33799.4h-1011.7c-27.1 0-49.2-22.1-49.2-49.3v-614.4c0-27.1 22.1-49.2 49.2-49.2h1011.7c27.2 0 49.3 22.1 49.3 49.2v614.4c0 27.2-22.1 49.3-49.3 49.3zm-1011.7-706.9c-23.9 0-43.3 19.4-43.3 43.3v614.4c0 23.9 19.4 43.4 43.3 43.4h1011.7c23.9 0 43.4-19.5 43.4-43.4v-614.4c0-23.9-19.5-43.3-43.4-43.3h-1011.7z" transform="translate(-39006.2 -31831.2)" class="color000045 svgShape"></path><path fill="#000045" d="M40497.3 32745.7c.6.8.7 1.9.3 2.8l-57.7 134.8c-.6 1.5-2.4 2.2-3.9 1.6-1.5-.6-2.2-2.4-1.6-3.9l57.7-134.8c.6-1.5 2.4-2.2 3.9-1.5.5.2 1 .5 1.3 1z" transform="rotate(124.391 29278.801 6582.81)" class="color000045 svgShape"></path><path fill="#000045" d="M41171.1 32567.3c.2-.5.6-.9 1.1-1.2 1.5-1 3.6-.6 4.6.9l49.1 71.7c1 1.5.7 3.6-.9 4.6-1.5 1-3.6.6-4.6-.9l-49.1-71.7c-.7-1.1-.8-2.4-.2-3.4z" transform="rotate(-118.155 11001.813 25256.441) scale(.88864)" class="color000045 svgShape"></path><path fill="#000045" fill-rule="evenodd" d="M40644.1 33324.6c0-24.4-4.9-47.7-13.6-64.8-8.7-17.2-20.4-26.8-32.8-26.8H39586c-12.2 0-24.1 9.6-32.7 26.8-8.6 17.2-13.6 40.4-13.6 64.8v523.7c0 24.3 4.9 47.6 13.6 64.7 8.6 17.2 20.4 26.9 32.7 26.9h1011.7c12.4 0 24-9.7 32.8-26.9 8.6-17.2 13.6-40.4 13.6-64.7v-523.7z" clip-rule="evenodd" transform="matrix(.96394 0 0 .4871 -37663.8 -14352.8)" class="color000045 svgShape"></path><path fill="#000045" d="M40026.7 32860.8h-110.2c-14.8 0-26.8-12-26.8-26.8v-110.2c0-14.8 12-26.8 26.8-26.8h110.2c14.8 0 26.8 12 26.8 26.8v110.2c0 14.7-12 26.8-26.8 26.8zm-110.2-157.9c-11.5 0-20.9 9.4-20.9 20.9v110.2c0 11.5 9.4 20.9 20.9 20.9h110.2c11.5 0 20.9-9.4 20.9-20.9v-110.2c0-11.5-9.4-20.9-20.9-20.9h-110.2z" transform="translate(-39097.9 -31727.4)" class="color000045 svgShape"></path><path fill="#3d61ff" d="M39983.2 32886.6h-113c-15.1 0-27.3-12.2-27.3-27.3v-113c0-15.1 12.2-27.3 27.3-27.3h113c15 0 27.3 12.2 27.3 27.3v113c-.1 15.1-12.3 27.3-27.3 27.3zm-113.1-157.8c-9.7 0-17.5 7.9-17.5 17.5v113c0 9.7 7.9 17.5 17.5 17.5h113c9.7 0 17.5-7.9 17.5-17.5v-113c0-9.7-7.9-17.5-17.5-17.5h-113z" transform="translate(-23010.2 -18695) scale(.60392)" class="color3d61ff svgShape"></path><path fill="#000045" d="M39819.8 33106.5c-16.2 0-29.4-13.2-29.4-29.4s13.2-29.4 29.4-29.4 29.4 13.2 29.4 29.4c-.1 16.2-13.3 29.4-29.4 29.4zm0-50.7c-11.8 0-21.3 9.6-21.3 21.3 0 11.8 9.6 21.3 21.3 21.3s21.3-9.6 21.3-21.3c0-11.8-9.6-21.3-21.3-21.3z" transform="translate(-27495.9 -22198.9) scale(.73383)" class="color000045 svgShape"></path><path fill="#3d61ff" d="M41429.4 32803.5c-15.5 0-28-12.6-28-28s12.6-28 28-28 28 12.6 28 28-12.6 28-28 28zm0-48.8c-11.5 0-20.8 9.3-20.8 20.8s9.3 20.8 20.8 20.8c11.4 0 20.8-9.3 20.8-20.8s-9.4-20.8-20.8-20.8z" transform="translate(-31258.1 -25601.8) scale(.81285)" class="color3d61ff svgShape"></path><path fill="#3d61ff" d="M40099.4 33433.9h-463.6c-1.6 0-2.9-1.3-2.9-2.9s1.3-2.9 2.9-2.9h463.6c1.6 0 2.9 1.3 2.9 2.9s-1.2 2.9-2.9 2.9z" transform="translate(-39006.2 -31821.6)" class="color3d61ff svgShape"></path><path fill="#000045" d="M40147.4 33445.2h-463.6c-1.8 0-3.2-2.2-3.2-4.9s1.4-4.9 3.2-4.9h463.6c1.8 0 3.2 2.2 3.2 4.9.1 2.6-1.4 4.9-3.2 4.9z" transform="matrix(1.53017 0 0 1 -60093.3 -31721.8)" class="color000045 svgShape"></path><path fill="#ffffff" d="M39934.1 33940.7h-405.7c-1.6 0-2.9-1.3-2.9-2.9s1.3-2.9 2.9-2.9h405.7c1.6 0 2.9 1.3 2.9 2.9s-1.2 2.9-2.9 2.9z" transform="translate(-38986.3 -31840)" class="colorfff svgShape"></path><path fill="#ffffff" d="M39813.9 33934h-405.7c-3 0-5.4-1.3-5.4-2.9s2.4-3 5.4-3h405.7c3 0 5.4 1.3 5.4 3s-2.4 2.9-5.4 2.9z" transform="matrix(.54847 0 0 1 -21072.1 -31912.3)" class="colorfff svgShape"></path><path fill="#ffffff" d="M40053.1 34244.5c-1.2-1.2-1.9-2.8-1.9-4.5v-207.3c0-3.5 2.9-6.4 6.4-6.4 3.5 0 6.4 2.9 6.4 6.4v207.3c0 3.5-2.9 6.4-6.4 6.4-1.7-.1-3.3-.8-4.5-1.9z" transform="rotate(-45 -6605.726 29560.738) scale(.46187)" class="colorfff svgShape"></path><path fill="#ffffff" d="M40393.3 34469.4c-1.2 1.2-2.8 1.9-4.5 1.9-3.5 0-6.4-2.9-6.4-6.4v-207.3c0-3.5 2.9-6.4 6.4-6.4 3.5 0 6.4 2.9 6.4 6.4v207.3c0 1.7-.7 3.3-1.9 4.5z" transform="rotate(45 26702.882 -11873.583) scale(.46187)" class="colorfff svgShape"></path><path fill="#3d61ff" d="M37186.2 20861.5h-3.9v-24.8c0-6.2 4.2-11.7 10.2-13.3.1 0 .2 0 .2-.1 14.8-3.9 25.2-17.4 25.2-32.7 0-9-3.5-17.5-9.9-23.9-6.4-6.4-14.9-9.9-23.9-9.9-18.6 0-33.7 15.2-33.7 33.8 0 1.1-.9 1.9-1.9 1.9-1.1 0-1.9-.9-1.9-1.9 0-20.8 16.9-37.7 37.6-37.7 10 0 19.5 3.9 26.6 11 7.1 7.1 11.1 16.6 11.1 26.7 0 17-11.5 32-28 36.4-.1 0-.2.1-.3.1-4.4 1.2-7.4 5.1-7.4 9.6v24.8z" transform="rotate(15 148048.225 -191723.498) scale(1.53016)" class="color3d61ff svgShape"></path><path fill="#3d61ff" d="M37165.7 20843.7v-21.4c0-8.2 5.2-15.5 13.1-18.2 13.5-4.5 22.6-17.1 22.6-31.3 0-8.8-3.4-17.2-9.7-23.4-6.2-6.2-14.5-9.7-23.4-9.7-8.8 0-17.1 3.4-23.3 9.7-6.2 6.2-9.7 14.6-9.7 23.4 0 1.5-1.2 2.7-2.7 2.7-1.5 0-2.7-1.2-2.7-2.7 0-10.3 4-19.9 11.2-27.2 7.2-7.2 16.9-11.2 27.1-11.2s19.9 4 27.1 11.2c7.3 7.3 11.3 16.9 11.3 27.2 0 16.5-10.5 31.1-26.2 36.3-5.5 1.9-9.4 7.3-9.4 13.1v21.4h-5.3z" transform="rotate(-15 -63627.211 160573.102) scale(1.10452)" class="color3d61ff svgShape"></path><path fill="#3d61ff" fill-rule="evenodd" d="M37185.2 20889c6.3 0 11.5 5.1 11.5 11.5s-5.1 11.5-11.5 11.5c-6.3 0-11.5-5.1-11.5-11.5s5.1-11.5 11.5-11.5z" clip-rule="evenodd" transform="rotate(15 117502.165 -150851.921) scale(1.21765)" class="color3d61ff svgShape"></path><path fill="#3d61ff" fill-rule="evenodd" d="M37165.2 20866.6c6.3 0 11.5 5.1 11.5 11.5 0 6.3-5.1 11.5-11.5 11.5-6.3 0-11.5-5.1-11.5-11.5s5.2-11.5 11.5-11.5z" clip-rule="evenodd" transform="rotate(-15 -49965.01 126369.35) scale(.87894)" class="color3d61ff svgShape"></path><path fill="#ffffff" fill-rule="evenodd" d="M39346.4 32710.8c100.5 1.6 181.5 121.2 181.5 268.4s-81 266.7-181.5 268.5h-2.3c-100.5-1.8-181.6-121.2-181.6-268.5 0-147.1 81.1-266.7 181.6-268.4v-.1h2.3v.1z" clip-rule="evenodd" transform="matrix(.16884 .29244 -.34614 .19984 5180.45 -16526.9)" class="colorfff svgShape"></path><path fill="#000045" d="M39481.7 33172.6c-35.7 52.2-83.6 81.5-135.1 82.4h-2.5c-52-.9-100.2-30.5-136-83.4-35-51.7-54.3-120-54.3-192.5 0-72.4 19.3-140.7 54.3-192.4l.6-.9c35.4-51.8 82.8-81 133.7-82.4.5-.1 1.1-.1 1.6-.1h2.4c.6 0 1.2 0 1.7.1 51.2 1.4 98.8 30.9 134.3 83.3 35 51.7 54.2 120 54.2 192.4s-19.2 140.8-54.2 192.5c-.2.3-.4.7-.7 1zm-257.8-379.6c-32.4 47.5-52.6 113.5-52.6 186.1 0 142.3 77.6 259.4 173 261.1h2.1c95.1-1.7 172.7-118.8 172.7-261.1 0-142.4-77.6-259.4-172.9-261-.3 0-.7 0-1-.1-.3 0-.6.1-1 .1-46.6.8-89.1 29.3-120.3 74.9z" transform="matrix(.16884 .29244 -.34614 .19984 5180.45 -16526.9)" class="color000045 svgShape"></path><path fill="#3d61ff" d="M39833.7 32714.2c11.3 35.6 17.2 74.5 17.2 114.7 0 72.4-19.2 140.8-54.2 192.5-35.8 52.9-84 82.5-135.8 83.4h-2.5c-51.9-.9-100.2-30.5-136-83.4-35-51.7-54.3-120-54.3-192.5 0-72.4 19.3-140.7 54.3-192.4 35.5-52.4 83.1-81.9 134.4-83.3.5-.1 1.1-.1 1.7-.1h2.3c.6 0 1.2 0 1.8.1 51.2 1.4 98.8 30.9 134.3 83.3 15.3 23 27.8 49.3 36.8 77.7zm-331.5 225.5c27.8 87.7 87.4 149.1 156.3 150.3h2.2c95.1-1.7 172.7-118.8 172.7-261.1s-77.6-259.4-172.9-261c-.3 0-.7 0-1-.1-.3 0-.6.1-1 .1-95.4 1.6-173 118.6-173 261 .1 39.6 6 77.1 16.7 110.8z" transform="matrix(-.0874 .32618 -.38607 -.10345 16892.2 -8121.49)" class="color3d61ff svgShape"></path><path fill="#000045" d="M39143 32197.2c-7-4-13.5-9-19.4-14.9-17.6-17.6-27.2-40.9-27.2-65.7 0-51.3 41.7-93 93-93 24.8 0 48.2 9.7 65.7 27.2 17.6 17.6 27.2 40.9 27.2 65.7 0 51.3-41.7 93-93 93-16.5.1-32.4-4.2-46.3-12.3zm88.4-153.7c-12.6-7.3-27-11.2-42-11.2-46.5 0-84.3 37.8-84.3 84.3 0 22.5 8.8 43.7 24.7 59.6s37.1 24.7 59.6 24.7c46.5 0 84.3-37.8 84.3-84.3 0-22.5-8.8-43.7-24.7-59.6-5.4-5.3-11.3-9.8-17.6-13.5z" transform="rotate(-30 -24248.094 60566.743) scale(.67883)" class="color000045 svgShape"></path><path fill="#3d61ff" d="M39293.6 32369.6c-7.7 2.1-15.8 3.2-24.1 3.2-24.9 0-48.3-9.7-65.9-27.3-17.6-17.6-27.3-41-27.3-65.9 0-24.9 9.7-48.3 27.3-65.9 17.6-17.6 41-27.3 65.9-27.3 24.9 0 48.3 9.7 65.9 27.3 17.6 17.6 27.3 41 27.3 65.9 0 43.1-29.4 79.4-69.1 90zm-46-171.2c-14.1 3.8-27 11.2-37.5 21.8-15.9 15.9-24.6 37-24.6 59.4 0 22.5 8.7 43.6 24.6 59.4 15.9 15.9 37 24.6 59.4 24.6 46.3 0 84.1-37.7 84.1-84.1 0-22.5-8.7-43.6-24.6-59.4-15.9-15.9-37-24.6-59.4-24.6-7.6 0-14.9 1-22 2.9z" transform="rotate(15 86797.829 -82291.871) scale(.64553)" class="color3d61ff svgShape"></path><path fill="#3d61ff" d="M39329.6 31905.5c-1.3-1.1-2.1-3.1-2.1-5.5v-195.7c0-3.5 1.9-6.3 4.2-6.3 2.3 0 4.2 2.8 4.2 6.3v195.7c0 3.5-1.9 6.3-4.2 6.3-.7 0-1.5-.3-2.1-.8z" transform="matrix(.60315 -.34823 .23259 .40285 -30779.1 2334.53)" class="color3d61ff svgShape"></path><path fill="#3d61ff" d="M39342.2 32058.7c-.3-.1-.6-.2-.9-.4-2.7-1.5-4.9-6.2-4.9-10.5v-195.7c0-4.3 2.2-6.5 4.9-5s4.8 6.2 4.8 10.5v195.7c0 3.8-1.7 6-3.9 5.4z" transform="matrix(.63864 -.10015 -.07167 .37429 -22401.4 -6605.74)" class="color3d61ff svgShape"></path><path fill="#3d61ff" d="M39768.3 31716.4c.2-.7.3-1.5.3-2.4v-195.7c0-4.3-2.2-9-4.8-10.5-2.7-1.5-4.9.7-4.9 5v195.7c0 4.3 2.2 9 4.9 10.5 2.1 1.2 3.9 0 4.5-2.6z" transform="matrix(-.40605 .503 .35998 .12507 5031.69 -22439)" class="color3d61ff svgShape"></path><g><path fill="#ffffff" fill-rule="evenodd" d="M44123.3 32702.9c-66.4-6.1-118.4-62.1-118.4-130.1 0-72.1 58.6-130.7 130.7-130.7s130.7 58.6 130.7 130.7c0 59.9-40.4 110.4-95.4 125.8l26 232.4c.8 7.1-4.3 13.6-11.4 14.3-6.8.8-15 1.6-21.8 2.4-7.1.8-13.6-4.3-14.3-11.4l-26.1-233.4zm12.3-221c50.2 0 90.8 40.8 90.8 91s-40.7 90.8-90.8 90.8c-50.2 0-91-40.7-91-90.8s40.8-91 91-91z" clip-rule="evenodd" transform="translate(-42644.8 -31316.3)" class="colorfff svgShape"></path><path fill="#3d61ff" d="M44162.4 32950.8c-3.6 0-7.1-1.2-9.9-3.4-3.3-2.6-5.4-6.4-5.9-10.6l-26-231.1c-32-3.5-61.6-18.6-83.6-42.5-22.6-24.7-35.1-56.7-35.1-90.2 0-73.7 60-133.7 133.7-133.7 73.7 0 133.7 60 133.7 133.7 0 58.8-39 111.1-95.2 128l25.7 229.9c.5 4.2-.7 8.4-3.3 11.7-2.6 3.3-6.4 5.4-10.6 5.9-3.4.4-7.1.8-10.8 1.2-3.8.4-7.5.8-10.9 1.2-.6-.1-1.2-.1-1.8-.1zm-26.8-505.7c-70.5 0-127.8 57.3-127.8 127.8 0 32 11.9 62.6 33.5 86.3 21.5 23.5 50.7 38 82.2 40.9 1.4.1 2.5 1.2 2.7 2.6l26.2 233.5c.3 2.6 1.6 5 3.7 6.6 2.1 1.7 4.7 2.4 7.4 2.1 3.4-.4 7.1-.8 10.9-1.2 3.7-.4 7.5-.8 10.8-1.2 2.6-.3 5-1.6 6.7-3.7 1.7-2.1 2.4-4.7 2.1-7.4l-26-232.4c-.2-1.4.7-2.8 2.1-3.2 54.9-15.4 93.3-66 93.3-123 0-70.4-57.3-127.7-127.8-127.7zm0 221.6c-51.8 0-93.9-42.1-93.9-93.8 0-51.8 42.1-93.9 93.9-93.9 51.7 0 93.8 42.1 93.8 93.9 0 51.7-42.1 93.8-93.8 93.8zm0-181.8c-48.5 0-88 39.5-88 88s39.5 87.9 88 87.9 87.9-39.4 87.9-87.9c0-48.6-39.4-88-87.9-88z" transform="translate(-42644.8 -31316.3)" class="color3d61ff svgShape"></path><path fill="#ffffff" fill-rule="evenodd" d="M40499.9 33181.8s-14.3 2.4-18.5 11.7c-4 9.2 0 30 0 30s-16 15.1-3.1 40.1c0 0-10.5 20.8 0 40.6 0 0-7.1 9.7 1.4 23.2 8.5 13.4 42.7 21 51.8 9.1 4.6-6.2 1.9-20 1.9-20s10.2-16.2 5.7-29.8c0 0 10.4-25.4-3.8-39.5 0 0 6.9-18.5 0-31.4l-15.5-24.1-19.9-9.9z" clip-rule="evenodd" transform="rotate(-5.447 -312844.166 427472.434)" class="colorfff svgShape"></path><path fill="#000045" d="M40510.5 33345c-12.3-1.2-27.3-6.9-33.2-16.2-7.5-11.8-4.2-21.2-2.3-24.9-8.5-17.7-2.1-35.4.1-40.4-6.4-13.3-5.1-23.8-2.8-30.5 1.8-5.2 4.5-8.9 6-10.6-.9-5.1-3.3-21.7.5-30.2 4.8-10.6 20-13.3 20.7-13.4.6-.1 1.2 0 1.8.3l19.9 9.8c.5.2.9.6 1.2 1l15.5 24c0 .1.1.1.1.2 6.2 11.6 2.4 26.9.8 32 12.2 13.9 5.4 35.4 3.6 40.3 3.5 12.7-3.5 26.5-5.7 30.3.6 3.8 2 15-2.6 21.2-3.8 5-11.2 7.5-20.9 7.1-1 .2-1.8.1-2.7 0zm-11-160.1c-3 .7-12.5 3.3-15.4 9.8-3 6.8-.9 22.7.2 28.2.2 1-.1 2-.9 2.7-.6.6-14.1 14-2.5 36.6.4.8.4 1.8 0 2.7-.1.2-9.6 19.7 0 37.8.5 1 .4 2.2-.2 3.1-.2.3-5.7 8.4 1.5 19.9 4.4 7 18.3 13.1 31.1 13.6 7.6.3 13.4-1.4 15.9-4.7 3.1-4.2 2-14.2 1.3-17.6-.1-.7 0-1.5.4-2.1.1-.1 9.4-15.2 5.4-27.4-.2-.7-.2-1.4.1-2 .1-.2 9.5-23.7-3.2-36.3-.8-.8-1.1-2-.7-3.1.1-.2 6.3-17.3.2-28.9l-15-23.3-18.2-9z" transform="rotate(-5.447 -312844.166 427472.434)" class="color000045 svgShape"></path><path fill="#000045" d="M40569.9 32804.1c-.3.1-.7 0-1-.1l-37.8-11.8c-1.6-.5-2.3-2.9-1.5-5.2.8-2.4 2.8-3.9 4.5-3.4l37.8 11.8c1.7.5 2.3 2.9 1.5 5.2-.7 2-2.1 3.3-3.5 3.5z" transform="matrix(1.40398 .1526 .1526 1.05764 -60446.9 -39398.7)" class="color000045 svgShape"></path><path fill="#000045" d="M40571.9 32806.3h-.9l-39-10.5c-1.6-.4-2.2-2.6-1.4-4.9s2.6-3.8 4.2-3.4l39 10.5c1.6.4 2.2 2.6 1.4 4.9-.7 1.8-2 3.2-3.3 3.4z" transform="matrix(1.45255 .17094 .17094 1.06457 -63016.6 -40332.9)" class="color000045 svgShape"></path><path fill="#000045" d="M40566.8 32806c-.2 0-.4 0-.6-.1l-70.3-14.9c-2.1-.4-3.7-2.1-3.5-3.8.2-1.6 2-2.6 4.1-2.2l70.3 14.9c2.1.4 3.7 2.1 3.5 3.8-.1 1.5-1.6 2.4-3.5 2.3z" transform="matrix(.78431 -.08147 -.08147 .96923 -27621.9 -26935.9)" class="color000045 svgShape"></path><path fill="#ffffff" fill-rule="evenodd" d="M40651 33293.1s-41.4-57.6-54.2-79.5c-12.8-21.9-60.2-38.6-77.4-46-17.2-7.4-24.2 36 26.3 44.8l16.4 36.2 13.9 120.6 16.9 8.5 58.1-84.6z" clip-rule="evenodd" transform="translate(-39025 -31769.6)" class="colorfff svgShape"></path><path fill="#000045" d="M40593 33380.7c-.4 0-.9-.1-1.3-.3l-16.9-8.5c-1.5-.7-2-2.5-1.3-4s2.5-2 4-1.3l14.6 7.4 55.4-80.8c-7-9.8-41.5-58.1-53.2-78-10.5-18-47.5-33.1-67.3-41.2-3.4-1.4-6.3-2.6-8.7-3.6-2.2-1-4.1-.8-5.7.6-2.3 2-4 7.1-2.2 13.6 1.7 5.9 8.5 20.2 35.9 25.1 1 .2 1.8.8 2.2 1.7l16.4 36.2c.7 1.5 0 3.2-1.5 3.9-1.5.7-3.2 0-3.9-1.5l-15.8-34.8c-29.5-5.7-37.1-22.1-39-29-2.2-7.9-.6-15.6 4-19.6 3.2-2.8 7.6-3.4 11.9-1.5 2.3 1 5.3 2.2 8.6 3.6 21.9 9 58.6 24 70.2 43.7 12.6 21.5 53.7 78.7 54.1 79.2.7 1 .7 2.4 0 3.4l-58 84.6c-.6.6-1.6 1.1-2.5 1.1z" transform="translate(-39025 -31769.6)" class="color000045 svgShape"></path><path fill="#000045" d="M40629.8 32842.1c-.4 0-.9-.1-1.3-.3-29.1-14.4-42.5-41.3-43.1-42.4-.7-1.5-.1-3.2 1.4-3.9s3.2-.1 3.9 1.3c.1.3 13.2 26.3 40.4 39.8 1.5.7 2.1 2.5 1.3 3.9-.5 1-1.5 1.6-2.6 1.6z" transform="translate(-39049.1 -31316.6)" class="color000045 svgShape"></path><path fill="#3d61ff" fill-rule="evenodd" d="M40809.8 33377.9s-78.7-73-113.1-73.3c0 0-26-13-39.7-19.9-4.8-2.4-10.7-1.3-14.3 2.7-13.2 14.9-44.3 52-59 89.9-1.3 3.3-1 6.9.7 9.9 4.5 8.2 14.5 25.1 26.2 39.5 0 0-10.1 29.5 63.4 96.4s168.9 146.3 254.4 166.5l-41.3-273.1-77.3-38.6z" clip-rule="evenodd" transform="translate(-39025 -31769.6)" class="color3d61ff svgShape"></path><path fill="#000045" d="M40634.7 33403.6c-.4 0-.9-.1-1.3-.3-1.5-.7-2.1-2.4-1.4-3.8 15.2-31.3 34.6-60 57.7-85.2 1-1.1 2.9-1.2 4.1-.1 1.2 1.1 1.4 2.9.3 4-22.8 24.9-41.9 53.1-56.9 84-.5.9-1.5 1.5-2.5 1.4z" transform="matrix(1.0219 -.03244 -.03244 1.04804 -38838.5 -32045.7)" class="color000045 svgShape"></path></g><g><path fill="#ffffff" fill-rule="evenodd" d="M40441.5 21270.2s6.2 77.1 21 111.4c0 0-24.1 76 26.7 60.2 0 0 41.2 121.1 151.1 64.4l48.9 154.8 195.6-94.2-62.4-157.6-105.8-192.3-180-52-95.1 105.3z" clip-rule="evenodd" transform="matrix(.92258 -.29055 .28164 .89429 -41669.1 -6196.03)" class="colorfff svgShape"></path><path fill="#000045" d="M40688.2 21664c-.1 0-.2-.1-.3-.1-.8-.4-1.4-1.1-1.7-1.9l-47.8-151.3c-31.7 15.6-60.9 18.1-86.8 7.3-40.6-16.9-59.9-60.7-64.4-72.3-11.6 3-20.4 1.5-26.2-4.7-14.1-14.9-4-52-1.9-59.2-14.5-34.9-20.5-108.2-20.8-111.3-.1-.9.2-1.8.8-2.4l94.9-105.4c.8-.9 2-1.2 3.1-.9l180 52c.8.2 1.4.8 1.8 1.5l105.8 192.3c.1.1.1.2.2.4l62.4 157.6c.6 1.6-.1 3.3-1.5 4l-195.6 94.2c-.5.4-1.2.4-2 .2zm-47-160.8c.1 0 .2.1.3.1.8.4 1.5 1.1 1.7 1.9l47.8 151.4 189.8-91.5-61.2-154.7-105.1-191-177-51.2-92.7 102.9c.9 10.5 7.3 78 20.6 109 .3.7.3 1.5.1 2.2-3.6 11.2-10.5 42.8.1 54 4.5 4.8 12.2 5.5 22.8 2.2 1.6-.5 3.2.4 3.8 2 .2.5 18.6 53.2 62 71.3 25 10.4 53.6 7.5 84.9-8.7.5-.1 1.3-.1 2.1.1z" transform="matrix(.92258 -.29055 .28164 .89429 -41669.1 -6196.03)" class="color000045 svgShape"></path><path fill="#000045" d="M40381.5 1052.9c.3-.1.7-.2 1-.4 1.4-.8 1.8-2.6 1-4-18.1-30-39.8-45.6-40.7-46.2-1.3-.9-3.1-.6-4 .7-.9 1.3-.6 3.1.7 4 .2.2 21.6 15.5 39.1 44.5.6 1.1 1.8 1.6 2.9 1.4z" transform="scale(-1.022 1.022) rotate(9.774 19353.53 -245685.64)" class="color000045 svgShape"></path><path fill="#000045" d="M40341.9 1043.4c.2 0 .5-.1.7-.2.2-.1 15.3-6.8 26-8.7 1.6-.3 2.6-1.8 2.3-3.3-.3-1.6-1.8-2.6-3.3-2.3-11.4 2-26.7 8.8-27.3 9.1-1.5.6-2.1 2.4-1.5 3.8.5 1.2 1.8 1.8 3.1 1.6z" transform="scale(-1.022 1.022) rotate(9.774 19353.53 -245685.64)" class="color000045 svgShape"></path><path fill="#000045" fill-rule="evenodd" d="M40427.2 1040.2c7.3 0 13.2 5.9 13.2 13.2 0 7.3-5.9 13.2-13.2 13.2-7.3 0-13.2-5.9-13.2-13.2-.1-7.3 5.9-13.2 13.2-13.2z" clip-rule="evenodd" transform="rotate(-25.188 21623.63 89727.751) scale(1.022)" class="color000045 svgShape"></path><path fill="#000045" fill-rule="evenodd" d="M40713.8 24892.5s-6.1 193.3-13.9 198c-8.2 4.9-17.4-198.4-17.4-198.4-8.2.9-16.8 1.3-26.5 1l-19-71.7-4.9 73.7s-56.1 13.9-116.7 17.1c0 0-43.7-170.6 107.6-235.5s399.7 4.5 304.2 326.7l-83.8 36.7s-52.9-14-85.8-64.2c0 0 14.4-2.2 28.1-14.1 9.9-8.6 17.2-27.2 9.6-49.7-17.9-53.7-81.5-19.6-81.5-19.6z" clip-rule="evenodd" transform="rotate(-17.48 -61365.79 151308.63) scale(1.08184)" class="color000045 svgShape"></path><path fill="#000045" d="M40575.3 24934.6c-.1 0-.2-.1-.2-.1-1.3-.6-1.9-2.2-1.3-3.6 3.2-8.2 13.3-15.9 24.1-18.4 11.8-2.7 23.1.8 32 9.9 1 1 1.1 2.8.1 3.9-.9 1.1-2.5 1.1-3.5.1-9.7-10.1-20.3-10.2-27.5-8.6-10.4 2.4-18.4 9.6-20.5 15.2-.7 1.3-2 2-3.2 1.6z" transform="matrix(1.13127 -.35627 .32497 1.03188 -52321.9 -10168.3)" class="color000045 svgShape"></path><path fill="#000045" d="M40735.6 24985.1c-1.1-.3-1.9-1.4-1.9-2.6 0-1.5 1.2-2.7 2.7-2.7 30.3.1 44.8-13.2 44.9-13.4 1.1-1 2.8-1 3.9.1 1 1.1 1 2.8-.1 3.8-.6.6-16 15-48.7 14.9-.3.1-.5 0-.8-.1z" transform="rotate(-17.48 -61370.744 151301.877) scale(1.08184)" class="color000045 svgShape"></path><path fill="#ffffff" fill-rule="evenodd" d="M40530.3 25174.8h194.3v149.2h-194.3z" clip-rule="evenodd" transform="matrix(-.70103 .73582 -.33508 -.31923 38937.783 -20600.626)" class="colorfff svgShape"></path><path fill="#000045" d="M40528.2 25328.4c-.5-1.2-.8-2.8-.8-4.4v-149.2c0-3.5 1.3-6.4 2.9-6.4h194.3c.8 0 1.5.7 2.1 1.9.6 1.2.8 2.8.9 4.5v149.2c0 3.5-1.3 6.4-2.9 6.4h-194.3c-.8 0-1.5-.7-2.1-1.9-.1 0-.1 0-.1-.1zm5-147.2v136.4h188.5v-136.4h-188.5z" transform="matrix(.70103 -.73582 .33508 .31923 -34945.5 23067.7)" class="color000045 svgShape"></path><path fill="#ffffff" fill-rule="evenodd" d="M40711.5 25205.5c0-24-20.4-43.5-45.5-43.5h-103.4c-25 0-45.5 19.5-45.5 43.5v62.2c0 23.9 20.4 43.5 45.5 43.5h103.4c25 0 45.5-19.6 45.5-43.5v-62.2z" clip-rule="evenodd" transform="matrix(.70103 -.73582 .7684 .73207 -45977.3 12755.9)" class="colorfff svgShape"></path><path fill="#000045" d="M40527.6 25299.6c-8.3-8.3-13.3-19.5-13.3-31.9v-62.2c0-25.5 21.7-46.3 48.4-46.3h103.4c26.7 0 48.4 20.8 48.4 46.3v62.2c0 25.5-21.7 46.3-48.4 46.3h-103.4c-13.8 0-26.3-5.5-35.1-14.4zm169.3-122.1c-7.8-7.8-18.7-12.7-30.8-12.7h-103.4c-23.5 0-42.6 18.3-42.6 40.7v62.2c0 22.5 19.1 40.7 42.6 40.7h103.4c23.5 0 42.6-18.3 42.6-40.7v-62.2c-.1-10.9-4.6-20.7-11.8-28z" transform="matrix(.70103 -.73582 .7684 .73207 -45977.3 12755.9)" class="color000045 svgShape"></path><path fill="#ffffff" fill-rule="evenodd" d="M40930.9 25043c0-7-6.8-12.6-15.1-12.6h-71.8c-8.3 0-15.1 5.6-15.1 12.6 0 6.9 6.8 12.5 15.1 12.5h71.8c8.4-.1 15.1-5.7 15.1-12.5z" clip-rule="evenodd" transform="matrix(.85713 -.74287 .8919 1.02909 -55331.9 5695.16)" class="colorfff svgShape"></path><path fill="#000045" d="M40832.4 25054c-.3-.2-.6-.4-.9-.7-3.4-2.8-5.2-6.4-5.2-10.4 0-8.1 7.9-14.7 17.7-14.7h71.8c9.8 0 17.7 6.6 17.7 14.7s-7.9 14.6-17.7 14.6h-71.8c-4.3.1-8.4-1.2-11.6-3.5zm91.6-18.9c-2.2-1.6-5-2.5-8.2-2.5h-71.8c-6.9 0-12.5 4.7-12.5 10.4 0 2.7 1.3 5.3 3.7 7.3 2.4 1.9 5.5 3 8.8 3h71.8c6.9 0 12.5-4.6 12.5-10.3 0-3.2-1.6-6-4.3-7.9z" transform="matrix(.85713 -.74287 .8919 1.02909 -55331.9 5695.16)" class="color000045 svgShape"></path><path fill="#000045" d="M40753.2 32975.7c-1.4 0-2.7-.9-3.1-2.3-.6-1.7.4-3.6 2.1-4.2 13.4-4.5 27.1-6.3 40.6-5.4 1.8.1 3.2 1.7 3.1 3.5-.1 1.8-1.7 3.2-3.5 3.1-12.6-.8-25.5.9-38.1 5.1-.4.2-.7.2-1.1.2z" transform="translate(-34450.3 -28084.7) scale(.88864)" class="color000045 svgShape"></path><path fill="#000045" fill-rule="evenodd" d="M40860.9 25055.9s-57.4 102.5 9.9 245.1l152.9-62.3-8.1-39.5 24.7 28 55.6-21s-23.2-155.9-162.4-185.8l-72.6 35.5z" clip-rule="evenodd" transform="matrix(1.03789 -.32686 .29595 .93974 -47805.3 -9051.38)" class="color000045 svgShape"></path></g><g><path fill="#ffffff" fill-rule="evenodd" d="M40895.6 33184.7s-8.5-89.5-43.6-149.7c0 0-61.2-10.7-135.4 22.5 0 0-29.7 48.4 22.3 81.3 0 0 14.6 23.2 45.4 36.2l8.6 35.2 59.1 42 43.6-67.5z" clip-rule="evenodd" transform="translate(-39025 -31769.6)" class="colorfff svgShape"></path><path fill="#000045" d="M40852 33255.2c-.6 0-1.2-.2-1.7-.5l-59.1-42c-.6-.4-1-1-1.2-1.7l-8.3-33.8c-28-12.3-42.5-32.4-45-36.2-27.6-17.7-32.4-39.8-31.5-55.3 1-16.8 8.5-29.2 8.8-29.7.3-.5.8-.9 1.3-1.1 74.2-33.2 136.5-22.8 137.2-22.7.9.1 1.6.7 2 1.4 35 60 43.9 150 44 150.9.1.7-.1 1.3-.5 1.9l-43.6 67.6c-.4.7-1.1 1.1-1.9 1.3-.2-.1-.4-.1-.5-.1zm-56.6-46.7 55.7 39.6 41.4-64.1c-1.1-9.9-10.6-90.8-42.4-146.2-9.3-1.3-65.4-7.2-131.5 22.1-3.5 6.3-24.2 47.4 21.8 76.5.4.2.7.5.9.9.1.2 14.6 22.6 44 35 .9.4 1.5 1.1 1.7 2l8.4 34.2z" transform="translate(-39025 -31769.6)" class="color000045 svgShape"></path><path fill="#000045" d="M40757.7 33127.6c-.9 0-1.8-.5-2.1-1.3-3.9-9.8-6.5-20.4-7.7-31.4-.1-1.1.8-2.1 2-2.2 1.3-.1 2.3.7 2.5 1.8 1.1 10.7 3.6 21 7.4 30.4.4 1.1-.2 2.2-1.4 2.6-.2 0-.4.1-.7.1z" transform="matrix(1.30678 0 0 1.44658 -51538.9 -46539.8)" class="color000045 svgShape"></path><path fill="#3d61ff" fill-rule="evenodd" d="M40990.1 33315c16.7 42.6 34.7 93.9 34.7 93.9l69.9-218.4s51.4-77.2 140.9-42.7c89.5 34.4 97.8 158 62.9 232-35 74-138.5 359.2-249.6 389.4-111 30.2-151.1-59.7-187.8-170.6 0 0-122.7-277.4-71.9-316.5 0 0-7.8-32.9-7.9-60.4.1-6.5 4.2-12 10.3-14.1 21.5-7.2 73.5-24.5 100.6-31.5 5.9-1.3 11.9 1.1 15.2 6.1 8.6 13 24.7 38 31 52.8 0 0 14.5 0 31.9 33.7 5.3 10.2 12.5 27.4 19.8 46.3" clip-rule="evenodd" transform="translate(-39025 -31769.6)" class="color3d61ff svgShape"></path><path fill="#000045" d="M41048.8 33772c-1.3 0-2.5-.9-2.8-2.2-.4-1.6.5-3.2 2.1-3.6 39.7-10.8 83.5-57.2 130.1-137.9 39.5-68.3 73.6-148.3 96.3-201.3 8.5-19.8 15.8-37 21.3-48.6 22.6-47.9 25.1-111.7 6.3-158.8-13.4-33.4-36.7-57.3-67.5-69.2-36.1-13.9-70.2-11.2-101.2 8.1-21.6 13.4-34.2 30.7-36 33.2l-69.7 218c-.4 1.2-1.5 2-2.8 2.1-1.2 0-2.4-.8-2.8-2-.2-.5-16.2-46.3-31.9-86.9-.6-1.5.2-3.2 1.7-3.8 1.5-.6 3.2.2 3.8 1.7 11.7 30.4 23.7 63.7 29 78.8l67.2-210.1c.1-.3.2-.5.4-.7.5-.8 13.5-20 37.8-35.2 22.5-14 59.3-26.9 106.6-8.7 32.4 12.4 56.9 37.5 70.9 72.5 19.4 48.5 16.9 114.3-6.4 163.5-5.5 11.5-12.8 28.6-21.2 48.4-47.2 110.7-135.2 316.7-230.3 342.5-.3.2-.6.2-.9.2zM40861 33601.4c-1.1 0-2.2-.7-2.7-1.8s-48.9-111-72.1-201.4c-.4-1.6.5-3.2 2.1-3.6 1.6-.4 3.2.5 3.6 2.1 23.1 89.9 71.3 199.4 71.8 200.5.7 1.5 0 3.2-1.5 3.9-.4.2-.8.3-1.2.3z" transform="translate(-39025 -31769.6)" class="color000045 svgShape"></path><path fill="#000045" d="M41071.9 33589.7h-.2c-1.6-.1-2.9-1.5-2.7-3.1 1.9-26.4-5.5-65.5-21.2-113-11.9-36-24.6-64.5-24.8-64.8-.7-1.5 0-3.2 1.5-3.9 1.5-.7 3.2 0 3.9 1.5.1.3 12.9 29 24.9 65.3 16.2 48.9 23.5 87.7 21.5 115.3-.1 1.5-1.4 2.7-2.9 2.7z" transform="translate(-39025 -31769.6)" class="color000045 svgShape"></path><path fill="#000045" d="M40815.9 33276.5c-1.1 0-2.2-.7-2.7-1.9-.6-1.5.1-3.2 1.6-3.8 33.9-13.8 65.9-24.6 97.8-33.2 1.5-.4 3.1.5 3.6 2.1s-.5 3.2-2 3.6c-31.7 8.6-63.5 19.3-97.2 33-.4.1-.8.2-1.1.2z" transform="matrix(1.02525 -.00859 -.00859 1.00292 -39773.8 -31514.9)" class="color000045 svgShape"></path></g><path fill="#000045" d="M41398.6 10805.4h-1763.8c-1.7 0-3.1-1.4-3.1-3.1s1.4-3.1 3.1-3.1h1763.8c1.7 0 3.1 1.4 3.1 3.1s-1.4 3.1-3.1 3.1z" transform="translate(-36681.9 -7907.21) scale(.95296)" class="color000045 svgShape"></path></svg></g></svg>